<svg version="1" xmlns="http://www.w3.org/2000/svg" width="933.333" height="933.333" viewBox="0 0 700.000000 700.000000"><path d="M329.5 129l-20 19.9-7.6-3.4c-19.5-8.9-43.9-18.2-44.7-17.1-.5.6-5.3 11.9-10.6 25.1-5.4 13.2-10.1 24.4-10.6 24.8-.4.5-13.3 1-28.6 1l-27.9.2-.3 28.3-.2 28.2-5.8 2.6c-3.1 1.4-11.8 5.1-19.2 8.2-25.9 10.7-26.5 10.9-26.2 12.3.4 2.1 9.7 24.9 15.3 37.5 2.7 6.2 4.9 11.8 4.9 12.6 0 .7-8.8 10.1-19.5 20.8-10.7 10.7-19.5 19.9-19.5 20.4 0 .6 8.8 9.8 19.6 20.6l19.5 19.7-10.4 25.4c-7.8 18.9-10.1 25.7-9.3 26.6.6.6 9 4.3 18.6 8.3 9.6 3.9 20.8 8.5 24.7 10.3l7.3 3.2v27.1c0 21.4.3 27.4 1.3 28.3.9.7 10.6 1.2 28.6 1.3l27.3.3 8.5 20.5c4.6 11.3 9.2 22.4 10.2 24.8.9 2.3 2.1 4.6 2.7 5.1.5.6 10.9-3.2 26.4-9.5l25.6-10.5 19.4 19.6c10.7 10.7 20.1 19.5 21 19.5.9 0 10.3-8.8 21-19.5l19.4-19.5 20.1 8.1c11 4.5 22.4 9.2 25.4 10.6 4.4 1.9 5.7 2.1 6.7 1.1.7-.7 5.7-12.3 11.2-25.8l9.9-24.5 27.3-.3c17.9-.1 27.8-.6 28.7-1.3 1-.9 1.3-7.3 1.5-28.6l.3-27.5 24-9.8c13.2-5.4 24.8-10.3 25.7-10.9 1.6-1 1.5-1.7-1.6-8.8-1.8-4.3-5.5-13.2-8.1-19.8-2.7-6.6-5.2-12.5-5.6-13-.4-.6-1.5-3.2-2.4-5.9l-1.7-4.9 19.6-19.6c10.8-10.9 19.6-20.1 19.6-20.6 0-.6-8.8-9.8-19.7-20.7l-19.6-19.6 9.3-22.9c5.1-12.5 9.9-24.3 10.7-26.1l1.4-3.3-4.8-2.1c-2.6-1.2-14.2-6-25.8-10.8l-21-8.6-.5-28.4-.5-28.5-27.9-.2c-15.3-.1-28.2-.5-28.7-1-.7-.7-8.7-19.5-12.9-30.3-4.8-12.3-7.4-18.6-8.2-19.7-.9-1.2-2.3-.7-16.6 5.8-3.5 1.6-6.8 2.9-7.3 2.9s-1.7.5-2.7 1c-.9.6-5.1 2.4-9.2 4.1-4.1 1.6-9.6 3.8-12.1 4.9l-4.6 1.8-19.9-19.9C359.5 118 350.3 109 350 109c-.3 0-9.5 9-20.5 20zm14.4 169c19 27.5 34.8 50 35.3 50 .4 0 .8-22.5.8-50v-50h48v201h-38.6l-34.5-49.1-34.4-49.2-.3 49.2-.2 49.1h-48V248h18.8l18.7.1 34.4 49.9z"/></svg>